<svg xmlns="http://www.w3.org/2000/svg" style="display:none">
  <symbol id="icon-newspaper" viewBox="0 0 24 24" fill="none" stroke="currentColor" stroke-width="1.8" stroke-linecap="round" stroke-linejoin="round">
    <path d="M6 7h11"/>
    <path d="M6 11h11"/>
    <path d="M6 15h8"/>
    <path d="M4 6a2 2 0 0 1 2-2h14v14a3 3 0 0 1-3 3H7a3 3 0 0 1-3-3V6Z"/>
    <path d="M4 18a3 3 0 0 0 3 3"/>
  </symbol>
  <symbol id="icon-megaphone" viewBox="0 0 24 24" fill="none" stroke="currentColor" stroke-width="1.8" stroke-linecap="round" stroke-linejoin="round">
    <path d="M3 11v2a3 3 0 0 0 3 3h1l2 5h2l-1.5-5H14l7-3V9l-7-3H6a3 3 0 0 0-3 3Z"/>
    <path d="M14 8v8"/>
  </symbol>
  <symbol id="icon-chat" viewBox="0 0 24 24" fill="none" stroke="currentColor" stroke-width="1.8" stroke-linecap="round" stroke-linejoin="round">
    <path d="M21 12a8 8 0 0 1-8 8H7l-4 2 1.5-4.5A8 8 0 1 1 21 12Z"/>
    <path d="M8 12h8"/>
    <path d="M8 16h5"/>
  </symbol>
  <symbol id="icon-calendar" viewBox="0 0 24 24" fill="none" stroke="currentColor" stroke-width="1.8" stroke-linecap="round" stroke-linejoin="round">
    <path d="M8 3v3"/>
    <path d="M16 3v3"/>
    <path d="M4 8h16"/>
    <path d="M6 5h12a2 2 0 0 1 2 2v13a2 2 0 0 1-2 2H6a2 2 0 0 1-2-2V7a2 2 0 0 1 2-2Z"/>
  </symbol>
  <symbol id="icon-video" viewBox="0 0 24 24" fill="none" stroke="currentColor" stroke-width="1.8" stroke-linecap="round" stroke-linejoin="round">
    <path d="M3 7a2 2 0 0 1 2-2h10a2 2 0 0 1 2 2v10a2 2 0 0 1-2 2H5a2 2 0 0 1-2-2V7Z"/>
    <path d="M17 10l4-2v8l-4-2v-4Z"/>
  </symbol>
  <symbol id="icon-chart" viewBox="0 0 24 24" fill="none" stroke="currentColor" stroke-width="1.8" stroke-linecap="round" stroke-linejoin="round">
    <path d="M4 19V5"/>
    <path d="M4 19h16"/>
    <path d="M8 16v-6"/>
    <path d="M12 16V8"/>
    <path d="M16 16v-3"/>
  </symbol>
  <symbol id="icon-tools" viewBox="0 0 24 24" fill="none" stroke="currentColor" stroke-width="1.8" stroke-linecap="round" stroke-linejoin="round">
    <path d="M14.7 6.3a4 4 0 0 0-5.7 5.7L3 18l3 3 6-6a4 4 0 0 0 5.7-5.7l-3 3-2-2 3-3Z"/>
  </symbol>
  <symbol id="icon-globe" viewBox="0 0 24 24" fill="none" stroke="currentColor" stroke-width="1.8" stroke-linecap="round" stroke-linejoin="round">
    <path d="M12 21c4.97 0 9-4.03 9-9s-4.03-9-9-9-9 4.03-9 9 4.03 9 9 9Z"/>
    <path d="M3.6 9h16.8"/>
    <path d="M3.6 15h16.8"/>
    <path d="M12 3c2.5 2.4 4 5.9 4 9s-1.5 6.6-4 9c-2.5-2.4-4-5.9-4-9s1.5-6.6 4-9Z"/>
  </symbol>
  <symbol id="icon-user" viewBox="0 0 24 24" fill="none" stroke="currentColor" stroke-width="1.8" stroke-linecap="round" stroke-linejoin="round">
    <path d="M20 21a8 8 0 0 0-16 0"/>
    <path d="M12 13a4 4 0 1 0-4-4 4 4 0 0 0 4 4Z"/>
  </symbol>
  <symbol id="icon-clock" viewBox="0 0 24 24" fill="none" stroke="currentColor" stroke-width="1.8" stroke-linecap="round" stroke-linejoin="round">
    <path d="M12 21a9 9 0 1 0-9-9 9 9 0 0 0 9 9Z"/>
    <path d="M12 7v6l4 2"/>
  </symbol>
  <symbol id="icon-external" viewBox="0 0 24 24" fill="none" stroke="currentColor" stroke-width="1.8" stroke-linecap="round" stroke-linejoin="round">
    <path d="M14 3h7v7"/>
    <path d="M10 14 21 3"/>
    <path d="M21 14v6a2 2 0 0 1-2 2H5a2 2 0 0 1-2-2V6a2 2 0 0 1 2-2h6"/>
  </symbol>
  <symbol id="icon-refresh" viewBox="0 0 24 24" fill="none" stroke="currentColor" stroke-width="1.8" stroke-linecap="round" stroke-linejoin="round">
    <path d="M21 12a9 9 0 0 1-15.4 6.4"/>
    <path d="M3 12a9 9 0 0 1 15.4-6.4"/>
    <path d="M21 16v-4h-4"/>
    <path d="M3 8v4h4"/>
  </symbol>
</svg>
